<?xml version="1.0" encoding="UTF-8" standalone="no"?><!DOCTYPE svg PUBLIC "-//W3C//DTD SVG 1.1//EN" "http://www.w3.org/Graphics/SVG/1.1/DTD/svg11.dtd"><svg width="100%" height="100%" viewBox="0 0 30 30" version="1.1" xmlns="http://www.w3.org/2000/svg" xmlns:xlink="http://www.w3.org/1999/xlink" xml:space="preserve" xmlns:serif="http://www.serif.com/" style="fill-rule:evenodd;clip-rule:evenodd;stroke-linejoin:round;stroke-miterlimit:2;"><rect id="arrowleft" x="0" y="0" width="30" height="30" style="fill:none;"/><g><path d="M9.888,15c-0,0.195 0.037,0.379 0.112,0.552c0.075,0.172 0.194,0.337 0.356,0.493l7.52,7.353c0.247,0.248 0.55,0.372 0.908,0.372c0.248,-0 0.471,-0.059 0.669,-0.176c0.199,-0.117 0.358,-0.274 0.479,-0.469c0.12,-0.195 0.18,-0.417 0.18,-0.664c0,-0.358 -0.136,-0.677 -0.41,-0.957l-6.689,-6.504l6.689,-6.504c0.274,-0.273 0.41,-0.592 0.41,-0.957c0,-0.241 -0.06,-0.461 -0.18,-0.659c-0.121,-0.199 -0.28,-0.357 -0.479,-0.474c-0.198,-0.117 -0.421,-0.176 -0.669,-0.176c-0.358,0 -0.661,0.124 -0.908,0.372l-7.52,7.353c-0.156,0.156 -0.271,0.319 -0.346,0.488c-0.075,0.17 -0.116,0.355 -0.122,0.557Z" style="fill-rule:nonzero;"/></g></svg>