<?xml version="1.0" encoding="UTF-8" standalone="no"?><!DOCTYPE svg PUBLIC "-//W3C//DTD SVG 1.1//EN" "http://www.w3.org/Graphics/SVG/1.1/DTD/svg11.dtd"><svg width="100%" height="100%" viewBox="0 0 30 30" version="1.1" xmlns="http://www.w3.org/2000/svg" xmlns:xlink="http://www.w3.org/1999/xlink" xml:space="preserve" xmlns:serif="http://www.serif.com/" style="fill-rule:evenodd;clip-rule:evenodd;stroke-linejoin:round;stroke-miterlimit:2;"><rect id="arrowright" x="0" y="0" width="30" height="30" style="fill:none;"/><g><path d="M20.112,14.998c-0.002,-0.2 -0.041,-0.384 -0.118,-0.553c-0.076,-0.17 -0.194,-0.333 -0.353,-0.49l-7.509,-7.355c-0.252,-0.248 -0.561,-0.372 -0.926,-0.372c-0.239,0 -0.459,0.059 -0.661,0.176c-0.202,0.117 -0.362,0.275 -0.48,0.472c-0.118,0.197 -0.177,0.418 -0.177,0.661c-0,0.363 0.137,0.682 0.411,0.957l6.683,6.501l-6.683,6.508c-0.274,0.279 -0.411,0.599 -0.411,0.96c-0,0.243 0.059,0.464 0.177,0.661c0.118,0.197 0.278,0.355 0.48,0.472c0.202,0.117 0.422,0.176 0.661,0.176c0.365,-0 0.674,-0.126 0.926,-0.378l7.509,-7.352c0.161,-0.157 0.28,-0.321 0.356,-0.491c0.077,-0.171 0.115,-0.355 0.115,-0.553Z" style="fill:#fff;fill-rule:nonzero;"/></g></svg>