<?xml version="1.0" encoding="UTF-8" standalone="no"?>
<!DOCTYPE svg PUBLIC "-//W3C//DTD SVG 1.1//EN" "http://www.w3.org/Graphics/SVG/1.1/DTD/svg11.dtd">
<svg width="100%" height="100%" viewBox="0 0 30 30" version="1.1" xmlns="http://www.w3.org/2000/svg" xmlns:xlink="http://www.w3.org/1999/xlink" xml:space="preserve" xmlns:serif="http://www.serif.com/" style="fill-rule:evenodd;clip-rule:evenodd;stroke-linejoin:round;stroke-miterlimit:2;">
    <g transform="matrix(1,0,0,1,-240,0)">
        <g id="Artboard7" transform="matrix(1,0,0,1,-40,0)">
            <rect x="280" y="0" width="30" height="30" style="fill:none;"/>
            <g transform="matrix(22,0,0,22,282.744,22.3324)">
                <path d="M0.557,-0.085C0.566,-0.085 0.574,-0.086 0.581,-0.09C0.588,-0.093 0.595,-0.098 0.602,-0.104L0.973,-0.485C0.984,-0.496 0.99,-0.509 0.99,-0.525C0.99,-0.535 0.987,-0.545 0.982,-0.554C0.977,-0.562 0.97,-0.569 0.962,-0.574C0.953,-0.579 0.944,-0.582 0.933,-0.582C0.917,-0.582 0.904,-0.576 0.892,-0.565L0.533,-0.197L0.581,-0.197L0.222,-0.565C0.211,-0.576 0.197,-0.582 0.181,-0.582C0.171,-0.582 0.161,-0.579 0.152,-0.574C0.144,-0.569 0.137,-0.562 0.132,-0.554C0.127,-0.545 0.125,-0.535 0.125,-0.525C0.125,-0.517 0.126,-0.51 0.129,-0.503C0.131,-0.496 0.136,-0.49 0.141,-0.485L0.513,-0.104C0.526,-0.091 0.541,-0.085 0.557,-0.085Z" style="fill:rgb(148,148,148);fill-rule:nonzero;"/>
            </g>
        </g>
    </g>
</svg>
