<?xml version="1.0" encoding="UTF-8" standalone="no"?>
<!DOCTYPE svg PUBLIC "-//W3C//DTD SVG 1.1//EN" "http://www.w3.org/Graphics/SVG/1.1/DTD/svg11.dtd">
<svg width="100%" height="100%" viewBox="0 0 30 30" version="1.1" xmlns="http://www.w3.org/2000/svg" xmlns:xlink="http://www.w3.org/1999/xlink" xml:space="preserve" xmlns:serif="http://www.serif.com/" style="fill-rule:evenodd;clip-rule:evenodd;stroke-linejoin:round;stroke-miterlimit:2;">
    <g transform="matrix(1,0,0,1,-200,0)">
        <g id="Artboard6" transform="matrix(1,0,0,1,-40,0)">
            <rect x="240" y="0" width="30" height="30" style="fill:none;"/>
            <g transform="matrix(22,0,0,22,242.744,23.1373)">
                <path d="M0.141,-0.218C0.136,-0.213 0.131,-0.207 0.129,-0.2C0.126,-0.193 0.125,-0.186 0.125,-0.178C0.125,-0.168 0.127,-0.158 0.132,-0.149C0.137,-0.141 0.144,-0.134 0.152,-0.129C0.161,-0.124 0.171,-0.121 0.181,-0.121C0.198,-0.121 0.211,-0.127 0.222,-0.138L0.581,-0.506L0.533,-0.506L0.892,-0.138C0.903,-0.127 0.917,-0.121 0.933,-0.121C0.944,-0.121 0.953,-0.124 0.962,-0.129C0.97,-0.134 0.977,-0.141 0.982,-0.149C0.987,-0.158 0.99,-0.168 0.99,-0.178C0.99,-0.194 0.984,-0.207 0.973,-0.218L0.602,-0.598C0.595,-0.605 0.588,-0.61 0.581,-0.613C0.574,-0.617 0.566,-0.618 0.557,-0.618C0.54,-0.618 0.526,-0.612 0.513,-0.598L0.141,-0.218Z" style="fill:rgb(148,148,148);fill-rule:nonzero;"/>
            </g>
        </g>
    </g>
</svg>
