<?xml version="1.0" encoding="UTF-8" standalone="no"?><!DOCTYPE svg PUBLIC "-//W3C//DTD SVG 1.1//EN" "http://www.w3.org/Graphics/SVG/1.1/DTD/svg11.dtd"><svg width="100%" height="100%" viewBox="0 0 30 30" version="1.1" xmlns="http://www.w3.org/2000/svg" xmlns:xlink="http://www.w3.org/1999/xlink" xml:space="preserve" xmlns:serif="http://www.serif.com/" style="fill-rule:evenodd;clip-rule:evenodd;stroke-linejoin:round;stroke-miterlimit:2;"><rect id="arrowdown" x="0" y="0" width="30" height="30" style="fill:none;"/><path id="Dark" d="M15.005,20.468c0.185,-0.002 0.359,-0.038 0.521,-0.11c0.163,-0.071 0.313,-0.178 0.451,-0.32l8.177,-8.377c0.242,-0.241 0.363,-0.53 0.363,-0.869c-0,-0.234 -0.056,-0.448 -0.167,-0.639c-0.11,-0.192 -0.26,-0.344 -0.447,-0.454c-0.188,-0.111 -0.398,-0.167 -0.632,-0.167c-0.342,0 -0.643,0.126 -0.903,0.378l-7.888,8.09l1.049,0l-7.895,-8.09c-0.257,-0.252 -0.558,-0.378 -0.905,-0.378c-0.234,0 -0.444,0.056 -0.632,0.167c-0.187,0.11 -0.337,0.262 -0.447,0.454c-0.111,0.191 -0.167,0.405 -0.167,0.639c0,0.172 0.031,0.331 0.092,0.477c0.061,0.147 0.151,0.28 0.269,0.401l8.181,8.368c0.292,0.286 0.619,0.43 0.98,0.43Z" style="fill:#6e6e6e;fill-rule:nonzero;"/></svg>