<?xml version="1.0" encoding="UTF-8" standalone="no"?><!DOCTYPE svg PUBLIC "-//W3C//DTD SVG 1.1//EN" "http://www.w3.org/Graphics/SVG/1.1/DTD/svg11.dtd"><svg width="100%" height="100%" viewBox="0 0 30 30" version="1.1" xmlns="http://www.w3.org/2000/svg" xmlns:xlink="http://www.w3.org/1999/xlink" xml:space="preserve" xmlns:serif="http://www.serif.com/" style="fill-rule:evenodd;clip-rule:evenodd;stroke-linejoin:round;stroke-miterlimit:2;"><rect id="arrowup" x="0" y="0" width="30" height="30" style="fill:none;"/><path id="Dark" d="M5.844,18.34c-0.118,0.113 -0.208,0.245 -0.269,0.395c-0.061,0.15 -0.092,0.311 -0.092,0.482c0,0.235 0.056,0.446 0.167,0.635c0.11,0.188 0.26,0.338 0.447,0.449c0.188,0.112 0.398,0.168 0.632,0.168c0.364,-0 0.666,-0.126 0.905,-0.378l7.895,-8.081l-1.049,-0l7.888,8.081c0.242,0.252 0.543,0.378 0.903,0.378c0.234,-0 0.444,-0.056 0.632,-0.168c0.187,-0.111 0.337,-0.261 0.447,-0.449c0.111,-0.189 0.167,-0.4 0.167,-0.635c-0,-0.35 -0.121,-0.642 -0.363,-0.877l-8.177,-8.368c-0.138,-0.142 -0.288,-0.251 -0.451,-0.326c-0.162,-0.075 -0.336,-0.113 -0.521,-0.115c-0.373,0 -0.7,0.147 -0.98,0.441l-8.181,8.368Z" style="fill:#6e6e6e;fill-rule:nonzero;"/></svg>