<?xml version="1.0" encoding="UTF-8" standalone="no"?><!DOCTYPE svg PUBLIC "-//W3C//DTD SVG 1.1//EN" "http://www.w3.org/Graphics/SVG/1.1/DTD/svg11.dtd"><svg width="100%" height="100%" viewBox="0 0 30 30" version="1.1" xmlns="http://www.w3.org/2000/svg" xmlns:xlink="http://www.w3.org/1999/xlink" xml:space="preserve" xmlns:serif="http://www.serif.com/" style="fill-rule:evenodd;clip-rule:evenodd;stroke-linejoin:round;stroke-miterlimit:2;"><rect id="Artboard1" x="0" y="0" width="30" height="30" style="fill:none;"/><path d="M2.078,22.123c-0,1.117 0.286,1.964 0.858,2.54c0.572,0.576 1.415,0.864 2.529,0.864l13.229,0c1.127,0 1.979,-0.285 2.556,-0.855c0.577,-0.57 0.866,-1.408 0.866,-2.513l0,-4.303c0,-0.113 0.038,-0.185 0.113,-0.218c0.075,-0.033 0.164,-0.011 0.266,0.066c0.191,0.134 0.392,0.254 0.601,0.361c0.21,0.107 0.436,0.194 0.68,0.259c0.244,0.065 0.506,0.098 0.788,0.098c0.639,0 1.212,-0.148 1.719,-0.444c0.507,-0.296 0.907,-0.7 1.2,-1.213c0.293,-0.513 0.439,-1.091 0.439,-1.734c0,-0.639 -0.146,-1.215 -0.439,-1.728c-0.293,-0.513 -0.693,-0.917 -1.2,-1.213c-0.507,-0.296 -1.08,-0.444 -1.719,-0.444c-0.282,0 -0.544,0.033 -0.788,0.098c-0.244,0.065 -0.47,0.152 -0.68,0.259c-0.209,0.107 -0.41,0.228 -0.601,0.363c-0.102,0.075 -0.191,0.097 -0.266,0.064c-0.075,-0.032 -0.113,-0.105 -0.113,-0.218l0,-4.372c0,-1.106 -0.289,-1.943 -0.866,-2.513c-0.577,-0.569 -1.429,-0.854 -2.556,-0.854l-13.229,-0c-1.114,-0 -1.957,0.288 -2.529,0.863c-0.572,0.575 -0.858,1.422 -0.858,2.541l-0,4.638c-0,0.382 0.125,0.683 0.375,0.903c0.25,0.22 0.543,0.33 0.878,0.33c0.196,-0 0.393,-0.043 0.591,-0.127c0.197,-0.084 0.381,-0.216 0.549,-0.395c0.156,-0.157 0.338,-0.322 0.548,-0.496c0.21,-0.173 0.465,-0.322 0.765,-0.445c0.3,-0.123 0.662,-0.185 1.085,-0.185c0.537,0 1.026,0.13 1.467,0.39c0.441,0.26 0.792,0.613 1.053,1.059c0.26,0.446 0.392,0.944 0.396,1.494c0.004,0.545 -0.124,1.041 -0.385,1.486c-0.26,0.445 -0.613,0.799 -1.057,1.062c-0.444,0.263 -0.936,0.394 -1.474,0.394c-0.423,0 -0.785,-0.061 -1.085,-0.184c-0.3,-0.124 -0.555,-0.274 -0.765,-0.45c-0.21,-0.177 -0.392,-0.344 -0.548,-0.5c-0.168,-0.173 -0.352,-0.302 -0.549,-0.387c-0.198,-0.084 -0.395,-0.126 -0.591,-0.126c-0.335,-0 -0.628,0.11 -0.878,0.33c-0.25,0.219 -0.375,0.52 -0.375,0.903l-0,4.552Z" style="fill-rule:nonzero;"/></svg>