<?xml version="1.0" encoding="UTF-8" standalone="no"?><!DOCTYPE svg PUBLIC "-//W3C//DTD SVG 1.1//EN" "http://www.w3.org/Graphics/SVG/1.1/DTD/svg11.dtd"><svg width="100%" height="100%" viewBox="0 0 30 30" version="1.1" xmlns="http://www.w3.org/2000/svg" xmlns:xlink="http://www.w3.org/1999/xlink" xml:space="preserve" xmlns:serif="http://www.serif.com/" style="fill-rule:evenodd;clip-rule:evenodd;stroke-linejoin:round;stroke-miterlimit:2;"><rect id="delete" x="0" y="0" width="30" height="30" style="fill:none;"/><path d="M10.612,25.358l8.785,0c1.262,0 1.995,-0.668 2.051,-1.92l0.594,-13.425l1.289,0c0.455,0 0.816,-0.352 0.816,-0.816c0,-0.455 -0.361,-0.807 -0.816,-0.807l-4.036,-0l0,-1.392c0,-1.475 -0.955,-2.356 -2.542,-2.356l-3.525,-0c-1.586,-0 -2.533,0.881 -2.533,2.356l0,1.392l-4.026,-0c-0.445,-0 -0.816,0.352 -0.816,0.807c-0,0.464 0.371,0.816 0.816,0.816l1.308,0l0.585,13.425c0.055,1.252 0.788,1.92 2.05,1.92Zm1.994,-18.276c0,-0.418 0.288,-0.696 0.752,-0.696l3.275,-0c0.473,-0 0.761,0.278 0.761,0.696l-0,1.308l-4.788,-0l0,-1.308Zm-0.575,15.456c-0.371,-0 -0.631,-0.241 -0.64,-0.612l-0.278,-9.881c-0.009,-0.362 0.241,-0.612 0.631,-0.612c0.371,-0 0.631,0.241 0.64,0.612l0.278,9.881c0.009,0.361 -0.241,0.612 -0.631,0.612Zm2.969,-0c-0.38,-0 -0.649,-0.251 -0.649,-0.612l-0,-9.881c-0,-0.362 0.269,-0.612 0.649,-0.612c0.39,-0 0.649,0.25 0.649,0.612l0,9.881c0,0.361 -0.259,0.612 -0.649,0.612Zm2.969,-0c-0.39,-0 -0.64,-0.251 -0.631,-0.612l0.278,-9.881c0.009,-0.371 0.269,-0.603 0.64,-0.603c0.39,0 0.64,0.241 0.631,0.612l-0.278,9.872c-0.009,0.371 -0.269,0.612 -0.64,0.612Z" style="fill:#fff;fill-rule:nonzero;"/></svg>