<?xml version="1.0" encoding="UTF-8" standalone="no"?><!DOCTYPE svg PUBLIC "-//W3C//DTD SVG 1.1//EN" "http://www.w3.org/Graphics/SVG/1.1/DTD/svg11.dtd"><svg width="100%" height="100%" viewBox="0 0 30 30" version="1.1" xmlns="http://www.w3.org/2000/svg" xmlns:xlink="http://www.w3.org/1999/xlink" xml:space="preserve" xmlns:serif="http://www.serif.com/" style="fill-rule:evenodd;clip-rule:evenodd;stroke-linejoin:round;stroke-miterlimit:2;"><rect id="edit" x="0" y="0" width="30" height="30" style="fill:none;"/><path d="M8.783,24.254l10.809,0c0.89,0 1.582,-0.254 2.075,-0.763c0.493,-0.509 0.74,-1.259 0.74,-2.252l-0,-9.804l-1.826,1.824l0,7.826c0,0.451 -0.106,0.788 -0.317,1.011c-0.212,0.223 -0.472,0.335 -0.779,0.335l-10.589,-0c-0.43,-0 -0.76,-0.112 -0.991,-0.335c-0.23,-0.223 -0.345,-0.56 -0.345,-1.011l-0,-10.324c-0,-0.451 0.115,-0.789 0.345,-1.015c0.231,-0.226 0.561,-0.339 0.991,-0.339l7.921,0l1.824,-1.823l-9.858,-0c-0.999,-0 -1.756,0.254 -2.273,0.763c-0.516,0.509 -0.774,1.26 -0.774,2.252l-0,10.64c-0,0.993 0.258,1.743 0.774,2.252c0.517,0.509 1.274,0.763 2.273,0.763Zm3.507,-6.198l1.889,-0.799l8.438,-8.433l-1.417,-1.402l-8.431,8.431l-0.837,1.836c-0.046,0.106 -0.024,0.205 0.065,0.295c0.089,0.091 0.187,0.114 0.293,0.072Zm11.004,-9.899l0.7,-0.726c0.172,-0.185 0.261,-0.392 0.27,-0.621c0.008,-0.228 -0.077,-0.43 -0.255,-0.605l-0.239,-0.25c-0.154,-0.157 -0.346,-0.226 -0.575,-0.206c-0.229,0.02 -0.43,0.113 -0.604,0.281l-0.716,0.702l1.419,1.425Z" style="fill:#fff;fill-rule:nonzero;"/></svg>