<?xml version="1.0" encoding="UTF-8" standalone="no"?><!DOCTYPE svg PUBLIC "-//W3C//DTD SVG 1.1//EN" "http://www.w3.org/Graphics/SVG/1.1/DTD/svg11.dtd"><svg width="100%" height="100%" viewBox="0 0 30 30" version="1.1" xmlns="http://www.w3.org/2000/svg" xmlns:xlink="http://www.w3.org/1999/xlink" xml:space="preserve" xmlns:serif="http://www.serif.com/" style="fill-rule:evenodd;clip-rule:evenodd;stroke-linejoin:round;stroke-miterlimit:2;"><rect id="failures" x="0" y="0" width="30" height="30" style="fill:none;"/><path d="M10.104,17.168l6.866,-5.699l-7.338,-7.385c-0.792,-0.791 -1.603,-1.19 -2.434,-1.196c-0.831,-0.006 -1.634,0.378 -2.408,1.152l-1.516,1.52c-0.768,0.775 -1.151,1.576 -1.149,2.401c0.003,0.826 0.401,1.635 1.193,2.428l6.786,6.779Zm-0.401,-4.537l-4.123,-4.105c-0.1,-0.102 -0.149,-0.223 -0.145,-0.364c0.003,-0.141 0.054,-0.265 0.151,-0.369c0.1,-0.092 0.221,-0.137 0.362,-0.135c0.141,0.002 0.255,0.048 0.342,0.137l4.135,4.137c0.101,0.102 0.149,0.219 0.146,0.353c-0.004,0.133 -0.054,0.249 -0.149,0.348c-0.101,0.099 -0.221,0.149 -0.36,0.15c-0.139,0 -0.259,-0.05 -0.359,-0.152Zm1.45,-1.433l-4.112,-4.142c-0.094,-0.096 -0.143,-0.213 -0.145,-0.351c-0.002,-0.138 0.048,-0.257 0.151,-0.356c0.095,-0.092 0.211,-0.14 0.348,-0.142c0.137,-0.003 0.256,0.045 0.356,0.144l4.125,4.118c0.096,0.096 0.143,0.215 0.143,0.359c-0.001,0.143 -0.052,0.267 -0.154,0.372c-0.087,0.086 -0.204,0.133 -0.35,0.14c-0.147,0.007 -0.267,-0.04 -0.362,-0.142Zm13.914,16.07l1.446,-1.446c0.117,-0.119 0.172,-0.256 0.163,-0.412c-0.008,-0.156 -0.064,-0.327 -0.169,-0.512l-1.974,-3.52c-0.232,-0.401 -0.559,-0.615 -0.98,-0.641l-1.072,-0.065l-5.419,-5.416l-2.532,2.626l5.376,5.374l0.065,1.074c0.007,0.18 0.067,0.359 0.182,0.538c0.115,0.178 0.268,0.318 0.459,0.42l3.54,1.996c0.173,0.093 0.337,0.145 0.493,0.155c0.155,0.01 0.296,-0.047 0.422,-0.171Zm-21.094,-1.025c0.636,0.629 1.326,1.049 2.071,1.259c0.745,0.211 1.487,0.211 2.228,0.002c0.74,-0.209 1.417,-0.624 2.03,-1.244c0.388,-0.388 0.729,-0.804 1.02,-1.247c0.292,-0.444 0.584,-0.929 0.876,-1.456c0.292,-0.527 0.63,-1.113 1.014,-1.758c0.385,-0.646 0.86,-1.363 1.426,-2.153c0.566,-0.79 1.265,-1.67 2.099,-2.638c0.834,-0.969 1.849,-2.044 3.047,-3.226l-1.126,-1.132c-1.331,1.331 -2.436,2.504 -3.316,3.52c-0.879,1.016 -1.598,1.908 -2.155,2.674c-0.557,0.767 -1.01,1.443 -1.359,2.03c-0.349,0.587 -0.653,1.113 -0.912,1.579c-0.259,0.467 -0.527,0.905 -0.805,1.316c-0.277,0.411 -0.629,0.83 -1.055,1.256c-0.562,0.567 -1.196,0.856 -1.9,0.866c-0.703,0.01 -1.356,-0.282 -1.958,-0.875c-0.595,-0.608 -0.888,-1.263 -0.88,-1.963c0.009,-0.701 0.293,-1.333 0.853,-1.894c0.432,-0.426 0.853,-0.778 1.264,-1.056c0.411,-0.278 0.851,-0.547 1.321,-0.806c0.469,-0.259 0.995,-0.563 1.578,-0.912c0.583,-0.349 1.26,-0.802 2.03,-1.359c0.77,-0.557 1.661,-1.276 2.674,-2.156c1.012,-0.88 2.184,-1.986 3.515,-3.317l-1.122,-1.126c-1.189,1.206 -2.27,2.227 -3.242,3.064c-0.972,0.837 -1.853,1.537 -2.642,2.1c-0.789,0.563 -1.506,1.035 -2.15,1.417c-0.644,0.382 -1.228,0.719 -1.753,1.011c-0.524,0.292 -1.007,0.582 -1.448,0.869c-0.441,0.286 -0.856,0.624 -1.245,1.013c-0.618,0.618 -1.033,1.296 -1.243,2.034c-0.21,0.738 -0.209,1.481 0.002,2.229c0.212,0.748 0.632,1.441 1.263,2.079Zm13.274,-13.284c0.624,0.625 1.323,1.098 2.097,1.418c0.774,0.321 1.567,0.49 2.381,0.508c0.814,0.018 1.602,-0.119 2.365,-0.409c0.762,-0.29 1.445,-0.737 2.047,-1.339c0.667,-0.666 1.143,-1.436 1.428,-2.312c0.284,-0.876 0.373,-1.781 0.265,-2.716c-0.108,-0.935 -0.422,-1.822 -0.943,-2.661l-1.213,1.222c0.309,0.6 0.485,1.221 0.529,1.864c0.043,0.643 -0.04,1.262 -0.25,1.856c-0.21,0.595 -0.542,1.12 -0.997,1.575c-0.588,0.582 -1.271,0.962 -2.051,1.141c-0.779,0.179 -1.566,0.157 -2.36,-0.066c-0.793,-0.224 -1.499,-0.641 -2.117,-1.253c-0.619,-0.619 -1.039,-1.325 -1.262,-2.118c-0.223,-0.793 -0.243,-1.581 -0.06,-2.363c0.183,-0.783 0.568,-1.465 1.155,-2.047c0.685,-0.686 1.515,-1.093 2.49,-1.22c0.975,-0.128 1.9,0.042 2.775,0.509l1.222,-1.222c-0.833,-0.519 -1.716,-0.833 -2.648,-0.942c-0.932,-0.108 -1.834,-0.02 -2.706,0.266c-0.872,0.285 -1.641,0.764 -2.307,1.435c-0.602,0.597 -1.05,1.276 -1.344,2.038c-0.294,0.763 -0.433,1.55 -0.418,2.361c0.016,0.811 0.184,1.603 0.504,2.377c0.32,0.774 0.793,1.473 1.418,2.098Zm3.299,-4.841l1.566,1.552c0.405,0.402 0.843,0.608 1.313,0.616c0.471,0.008 0.898,-0.179 1.282,-0.563l2.311,-2.317l-1.04,-1.031l-2.042,2.022c-0.296,0.301 -0.592,0.301 -0.888,0.002l-1.212,-1.217c-0.315,-0.322 -0.33,-0.626 -0.046,-0.913l2.057,-2.042l-1.064,-1.038l-2.293,2.302c-0.401,0.397 -0.595,0.831 -0.581,1.303c0.013,0.472 0.226,0.913 0.637,1.324Zm-13.449,16.298c0.352,0 0.654,-0.125 0.905,-0.377c0.251,-0.251 0.376,-0.553 0.376,-0.903c0,-0.352 -0.125,-0.653 -0.376,-0.901c-0.251,-0.249 -0.553,-0.373 -0.905,-0.373c-0.352,-0 -0.652,0.124 -0.901,0.373c-0.248,0.248 -0.373,0.549 -0.373,0.901c0,0.35 0.125,0.652 0.373,0.903c0.249,0.252 0.549,0.377 0.901,0.377Z" style="fill:#fff;fill-rule:nonzero;"/></svg>