<?xml version="1.0" encoding="UTF-8" standalone="no"?><!DOCTYPE svg PUBLIC "-//W3C//DTD SVG 1.1//EN" "http://www.w3.org/Graphics/SVG/1.1/DTD/svg11.dtd"><svg width="100%" height="100%" viewBox="0 0 30 30" version="1.1" xmlns="http://www.w3.org/2000/svg" xmlns:xlink="http://www.w3.org/1999/xlink" xml:space="preserve" xmlns:serif="http://www.serif.com/" style="fill-rule:evenodd;clip-rule:evenodd;stroke-linejoin:round;stroke-miterlimit:2;"><rect id="Artboard4" x="0" y="0" width="30" height="30" style="fill:none;"/><path d="M4.394,13.041c-0,1.207 0.226,2.338 0.679,3.395c0.454,1.056 1.082,1.986 1.884,2.79c0.803,0.803 1.733,1.431 2.789,1.884c1.057,0.452 2.189,0.679 3.395,0.679c0.893,-0 1.747,-0.131 2.561,-0.394c0.814,-0.262 1.564,-0.624 2.248,-1.086l4.929,4.938c0.159,0.153 0.337,0.268 0.534,0.344c0.198,0.076 0.404,0.114 0.619,0.114c0.307,-0 0.579,-0.071 0.816,-0.211c0.238,-0.141 0.423,-0.333 0.557,-0.576c0.134,-0.243 0.201,-0.515 0.201,-0.814c0,-0.214 -0.038,-0.417 -0.114,-0.608c-0.076,-0.192 -0.189,-0.363 -0.339,-0.513l-4.89,-4.919c0.509,-0.702 0.908,-1.478 1.195,-2.33c0.287,-0.852 0.431,-1.75 0.431,-2.693c-0,-1.205 -0.227,-2.336 -0.68,-3.393c-0.453,-1.056 -1.082,-1.986 -1.885,-2.79c-0.804,-0.803 -1.733,-1.431 -2.789,-1.884c-1.056,-0.452 -2.187,-0.679 -3.394,-0.679c-1.206,0 -2.338,0.227 -3.395,0.679c-1.056,0.453 -1.986,1.081 -2.789,1.884c-0.802,0.804 -1.43,1.734 -1.884,2.79c-0.453,1.057 -0.679,2.188 -0.679,3.393Zm2.286,-0c-0,-0.892 0.166,-1.727 0.5,-2.507c0.333,-0.78 0.797,-1.467 1.391,-2.061c0.594,-0.594 1.281,-1.058 2.061,-1.391c0.78,-0.334 1.616,-0.501 2.509,-0.501c0.893,0 1.73,0.167 2.509,0.501c0.78,0.333 1.466,0.797 2.057,1.391c0.591,0.594 1.054,1.281 1.39,2.061c0.336,0.78 0.504,1.615 0.504,2.507c-0,0.893 -0.168,1.729 -0.504,2.509c-0.336,0.78 -0.799,1.466 -1.39,2.057c-0.591,0.591 -1.277,1.054 -2.057,1.391c-0.779,0.336 -1.616,0.505 -2.509,0.505c-0.893,-0 -1.729,-0.169 -2.509,-0.505c-0.78,-0.337 -1.467,-0.8 -2.061,-1.391c-0.594,-0.591 -1.058,-1.277 -1.391,-2.057c-0.334,-0.78 -0.5,-1.616 -0.5,-2.509Z" style="fill:#666;fill-rule:nonzero;"/></svg>