<?xml version="1.0" encoding="UTF-8" standalone="no"?><!DOCTYPE svg PUBLIC "-//W3C//DTD SVG 1.1//EN" "http://www.w3.org/Graphics/SVG/1.1/DTD/svg11.dtd"><svg width="100%" height="100%" viewBox="0 0 30 30" version="1.1" xmlns="http://www.w3.org/2000/svg" xmlns:xlink="http://www.w3.org/1999/xlink" xml:space="preserve" xmlns:serif="http://www.serif.com/" style="fill-rule:evenodd;clip-rule:evenodd;stroke-linejoin:round;stroke-miterlimit:2;"><rect id="modes" x="0" y="0" width="30" height="30" style="fill:none;"/><path d="M6.567,25.275l16.855,-0c0.558,-0 1.042,-0.122 1.45,-0.365c0.408,-0.244 0.725,-0.573 0.951,-0.989c0.225,-0.415 0.338,-0.873 0.338,-1.375c0,-0.229 -0.03,-0.456 -0.091,-0.682c-0.061,-0.225 -0.152,-0.446 -0.274,-0.66l-8.443,-15.082c-0.258,-0.466 -0.598,-0.815 -1.021,-1.048c-0.422,-0.233 -0.867,-0.349 -1.332,-0.349c-0.458,0 -0.902,0.116 -1.332,0.349c-0.43,0.233 -0.773,0.582 -1.031,1.048l-8.433,15.092c-0.243,0.444 -0.365,0.888 -0.365,1.332c-0,0.502 0.113,0.96 0.338,1.375c0.226,0.416 0.543,0.745 0.951,0.989c0.408,0.243 0.888,0.365 1.439,0.365Zm8.454,-7.358c-0.651,-0 -0.988,-0.33 -1.009,-0.989l-0.151,-5.414c-0.014,-0.322 0.086,-0.589 0.301,-0.8c0.215,-0.211 0.498,-0.317 0.849,-0.317c0.343,-0 0.626,0.106 0.848,0.317c0.222,0.211 0.326,0.481 0.312,0.811l-0.172,5.392c-0.014,0.666 -0.34,1 -0.978,1Zm0,3.695c-0.358,-0 -0.667,-0.115 -0.929,-0.344c-0.261,-0.229 -0.392,-0.523 -0.392,-0.881c0,-0.351 0.129,-0.644 0.387,-0.881c0.258,-0.236 0.569,-0.354 0.934,-0.354c0.359,-0 0.667,0.118 0.924,0.354c0.258,0.237 0.387,0.53 0.387,0.881c0,0.358 -0.129,0.652 -0.387,0.881c-0.257,0.229 -0.565,0.344 -0.924,0.344Z" style="fill:#fff;fill-rule:nonzero;"/></svg>