<?xml version="1.0" encoding="UTF-8" standalone="no"?><!DOCTYPE svg PUBLIC "-//W3C//DTD SVG 1.1//EN" "http://www.w3.org/Graphics/SVG/1.1/DTD/svg11.dtd"><svg width="100%" height="100%" viewBox="0 0 30 30" version="1.1" xmlns="http://www.w3.org/2000/svg" xmlns:xlink="http://www.w3.org/1999/xlink" xml:space="preserve" xmlns:serif="http://www.serif.com/" style="fill-rule:evenodd;clip-rule:evenodd;stroke-linejoin:round;stroke-miterlimit:2;"><rect id="plus" x="0" y="0" width="30" height="30" style="fill:none;"/><path d="M6.009,15c-0,0.666 0.548,1.203 1.203,1.203l6.585,0l-0,6.585c-0,0.655 0.548,1.203 1.203,1.203c0.655,0 1.203,-0.548 1.203,-1.203l0,-6.585l6.585,0c0.655,0 1.203,-0.537 1.203,-1.203c0,-0.655 -0.548,-1.203 -1.203,-1.203l-6.585,-0l0,-6.585c0,-0.655 -0.548,-1.203 -1.203,-1.203c-0.655,-0 -1.203,0.548 -1.203,1.203l-0,6.585l-6.585,-0c-0.655,-0 -1.203,0.548 -1.203,1.203Z" style="fill:#fff;fill-rule:nonzero;"/></svg>