<?xml version="1.0" encoding="UTF-8" standalone="no"?>
<!DOCTYPE svg PUBLIC "-//W3C//DTD SVG 1.1//EN" "http://www.w3.org/Graphics/SVG/1.1/DTD/svg11.dtd">
<svg width="100%" height="100%" viewBox="0 0 30 30" version="1.1" xmlns="http://www.w3.org/2000/svg" xmlns:xlink="http://www.w3.org/1999/xlink" xml:space="preserve" xmlns:serif="http://www.serif.com/" style="fill-rule:evenodd;clip-rule:evenodd;stroke-linejoin:round;stroke-miterlimit:2;">
    <g transform="matrix(1,0,0,1,-160,0)">
        <g id="Artboard5" transform="matrix(1,0,0,1,-40,0)">
            <rect x="200" y="0" width="30" height="30" style="fill:none;"/>
            <g transform="matrix(22,0,0,22,203.27,22.7559)">
                <path d="M0.125,-0.353C0.125,-0.322 0.149,-0.298 0.179,-0.298L0.479,-0.298L0.479,0.001C0.479,0.031 0.503,0.056 0.533,0.056C0.563,0.056 0.588,0.031 0.588,0.001L0.588,-0.298L0.887,-0.298C0.917,-0.298 0.942,-0.322 0.942,-0.353C0.942,-0.382 0.917,-0.407 0.887,-0.407L0.588,-0.407L0.588,-0.707C0.588,-0.736 0.563,-0.761 0.533,-0.761C0.503,-0.761 0.479,-0.736 0.479,-0.707L0.479,-0.407L0.179,-0.407C0.149,-0.407 0.125,-0.382 0.125,-0.353Z" style="fill-rule:nonzero;"/>
            </g>
        </g>
    </g>
</svg>
